<svg width="197" height="68" xmlns="http://www.w3.org/2000/svg" preserveAspectRatio="xMidYMid">
 <defs>
  <filter filterUnits="userSpaceOnUse" id="filter-chain-1">
   <feGaussianBlur result="dropBlur" stdDeviation="2.236"/>
   <feGaussianBlur result="innerShadowBlur" stdDeviation="2.646"/>
  </filter>
 </defs>
 <g>
  <title>Layer 1</title>
  <path id="svg_3" fill="#2b2f4c" fill-rule="evenodd" class="cls-2" d="m192.413,48.715c-1.218,1.19 -2.919,1.785 -5.103,1.785l-3.738,0c-2.212,0 -3.92,-0.588 -5.124,-1.764c-1.204,-1.176 -1.806,-2.87 -1.806,-5.082l0,-7.728c0,-2.212 0.602,-3.906 1.806,-5.082c1.204,-1.176 2.912,-1.764 5.124,-1.764l3.738,0c2.184,0 3.885,0.595 5.103,1.785c1.218,1.19 1.827,2.877 1.827,5.061l0,7.728c0,2.184 -0.609,3.871 -1.827,5.061zm-3.423,-12.621c0,-0.896 -0.189,-1.526 -0.567,-1.89c-0.378,-0.364 -1.015,-0.546 -1.911,-0.546l-2.142,0c-0.896,0 -1.526,0.182 -1.89,0.546c-0.364,0.364 -0.546,0.994 -0.546,1.89l0,7.392c0,0.896 0.182,1.526 0.546,1.89c0.364,0.364 0.994,0.546 1.89,0.546l2.142,0c0.896,0 1.533,-0.182 1.911,-0.546c0.378,-0.364 0.567,-0.994 0.567,-1.89l0,-7.392zm-23.057,14.406l-10.08,0c-0.588,0 -0.882,-0.294 -0.882,-0.882l0,-27.762c0,-0.588 0.294,-0.882 0.882,-0.882l3.57,0c0.588,0 0.882,0.294 0.882,0.882l0,9.45l0.168,0c0.308,-0.756 0.854,-1.33 1.638,-1.722c0.784,-0.392 1.61,-0.588 2.478,-0.588l1.344,0c2.212,0 3.92,0.588 5.124,1.764c1.204,1.176 1.806,2.87 1.806,5.082l0,7.812c0,2.212 -0.602,3.906 -1.806,5.082c-1.204,1.176 -2.912,1.764 -5.124,1.764zm1.596,-14.406c0,-0.896 -0.189,-1.533 -0.567,-1.911c-0.378,-0.378 -1.015,-0.567 -1.911,-0.567l-1.848,0c-1.932,0 -2.898,1.064 -2.898,3.192l0,8.61c0,0.308 0.154,0.462 0.462,0.462l4.284,0c0.896,0 1.533,-0.189 1.911,-0.567c0.378,-0.378 0.567,-1.015 0.567,-1.911l0,-7.308zm-17.891,14.406l-3.57,0c-0.588,0 -0.882,-0.294 -0.882,-0.882l0,-13.44c0,-0.896 -0.183,-1.533 -0.546,-1.911c-0.365,-0.378 -0.995,-0.567 -1.89,-0.567l-1.05,0c-1.932,0 -2.898,1.078 -2.898,3.234l0,12.684c0,0.588 -0.309,0.882 -0.924,0.882l-3.528,0c-0.588,0 -0.882,-0.294 -0.882,-0.882l0,-13.44c0,-0.896 -0.189,-1.533 -0.567,-1.911c-0.378,-0.378 -1.016,-0.567 -1.911,-0.567l-1.302,0c-1.932,0 -2.898,1.064 -2.898,3.192l0,12.726c0,0.588 -0.294,0.882 -0.882,0.882l-3.57,0c-0.588,0 -0.882,-0.294 -0.882,-0.882l0,-19.656c0,-0.588 0.294,-0.882 0.882,-0.882l3.57,0c0.588,0 0.882,0.294 0.882,0.882l0,1.386l0.168,0c0.336,-0.672 0.903,-1.218 1.701,-1.638c0.798,-0.42 1.714,-0.63 2.751,-0.63l1.176,0c2.436,0 4.185,0.896 5.25,2.688c0.951,-1.792 2.589,-2.688 4.914,-2.688l1.218,0c2.155,0 3.786,0.588 4.893,1.764c1.105,1.176 1.659,2.87 1.659,5.082l0,13.692c0,0.588 -0.294,0.882 -0.882,0.882zm-33.726,0l-3.528,0c-0.588,0 -0.882,-0.294 -0.882,-0.882l0,-1.386l-0.168,0c-0.309,0.756 -0.855,1.323 -1.638,1.701c-0.784,0.378 -1.611,0.567 -2.478,0.567l-1.008,0c-2.212,0 -3.921,-0.588 -5.124,-1.764c-1.204,-1.176 -1.806,-2.87 -1.806,-5.082l0,-7.728c0,-2.212 0.602,-3.906 1.806,-5.082c1.203,-1.176 2.912,-1.764 5.124,-1.764l9.702,0c0.615,0 0.924,0.294 0.924,0.882l0,19.656c0,0.588 -0.309,0.882 -0.924,0.882zm-4.41,-16.338c0,-0.308 -0.168,-0.462 -0.504,-0.462l-3.948,0c-0.897,0 -1.527,0.189 -1.89,0.567c-0.364,0.378 -0.546,1.015 -0.546,1.911l0,7.224c0,0.896 0.182,1.533 0.546,1.911c0.363,0.378 0.993,0.567 1.89,0.567l1.554,0c1.932,0 2.898,-1.064 2.898,-3.192l0,-8.526zm-23.31,16.338l-4.452,0c-2.212,0 -3.92,-0.588 -5.124,-1.764c-1.204,-1.176 -1.806,-2.87 -1.806,-5.082l0,-13.314c0,-2.212 0.602,-3.906 1.806,-5.082c1.204,-1.176 2.912,-1.764 5.124,-1.764l4.452,0c2.184,0 3.878,0.595 5.082,1.785c1.204,1.19 1.806,2.877 1.806,5.061l0,1.26c0,0.616 -0.294,0.924 -0.882,0.924l-3.57,0c-0.588,0 -0.882,-0.308 -0.882,-0.924l0,-1.008c0,-0.896 -0.182,-1.533 -0.546,-1.911c-0.364,-0.378 -0.994,-0.567 -1.89,-0.567l-2.73,0c-0.868,0 -1.491,0.189 -1.869,0.567c-0.378,0.378 -0.567,1.015 -0.567,1.911l0,12.81c0,0.896 0.189,1.533 0.567,1.911c0.378,0.378 1.001,0.567 1.869,0.567l2.73,0c0.896,0 1.526,-0.189 1.89,-0.567c0.364,-0.378 0.546,-1.015 0.546,-1.911l0,-2.646c0,-0.308 -0.154,-0.462 -0.462,-0.462l-2.52,0c-0.588,0 -0.882,-0.294 -0.882,-0.882l0,-2.856c0,-0.588 0.294,-0.882 0.882,-0.882l7.35,0c0.644,0 0.966,0.322 0.966,0.966l0,7.014c0,2.184 -0.602,3.871 -1.806,5.061c-1.204,1.19 -2.898,1.785 -5.082,1.785z"/>
  <g id="svg_4">
   <rect id="svg_5" filter="url(#filter-chain-1)" fill="#f55d2c" class="cls-3" ry="10" rx="10" height="60" width="60" y="2" x="4"/>
   <path id="svg_6" fill="#fff" fill-rule="evenodd" class="cls-4" d="m42.85,46.375c1.433,-1.416 2.15,-3.425 2.15,-6.025l0,-8.35c0,-0.766 -0.384,-1.15 -1.15,-1.15l-8.75,0c-0.7,0 -1.05,0.35 -1.05,1.05l0,3.4c0,0.7 0.35,1.05 1.05,1.05l3,0c0.366,0 0.55,0.184 0.55,0.55l0,3.15c0,1.067 -0.217,1.825 -0.65,2.275c-0.434,0.45 -1.184,0.675 -2.25,0.675l-3.25,0c-1.034,0 -1.775,-0.225 -2.225,-0.675c-0.45,-0.45 -0.675,-1.208 -0.675,-2.275l0,-15.25c0,-1.066 0.225,-1.825 0.675,-2.275c0.45,-0.45 1.191,-0.675 2.225,-0.675l3.25,0c1.066,0 1.816,0.225 2.25,0.675c0.433,0.45 0.65,1.209 0.65,2.275l0,1.2c0,0.734 0.35,1.1 1.05,1.1l4.25,0c0.7,0 1.05,-0.366 1.05,-1.1l0,-1.5c0,-2.6 -0.717,-4.608 -2.15,-6.025c-1.434,-1.416 -3.45,-2.125 -6.05,-2.125l-5.3,0c-2.634,0 -4.667,0.7 -6.1,2.1c-1.434,1.4 -2.15,3.417 -2.15,6.05l0,15.85c0,2.634 0.716,4.65 2.15,6.05c1.433,1.4 3.466,2.1 6.1,2.1l5.3,0c2.6,0 4.616,-0.708 6.05,-2.125z"/>
  </g>
 </g>
</svg>